<?xml version="1.0" encoding="UTF-8" standalone="no" ?>
<!DOCTYPE svg PUBLIC "-//W3C//DTD SVG 1.1//EN" "http://www.w3.org/Graphics/SVG/1.1/DTD/svg11.dtd">
<svg xmlns="http://www.w3.org/2000/svg" xmlns:xlink="http://www.w3.org/1999/xlink" version="1.1" width="400" height="400" viewBox="0 0 400 400" xml:space="preserve">
<desc>Created with Fabric.js 3.6.2</desc>
<defs>
</defs>
<g transform="matrix(4.17 0 0 4.17 187.5 172.92)" id="Layer_1"  >
<path style="stroke: none; stroke-width: 1; stroke-dasharray: none; stroke-linecap: butt; stroke-dashoffset: 0; stroke-linejoin: miter; stroke-miterlimit: 4; fill: rgb(176,190,197); fill-rule: nonzero; opacity: 1;"  transform=" translate(-21, -17.5)" d="M 35 5 H 7 C 4.791 5 3 6.791 3 9 v 17 c 0 2.208 1.791 4 4 4 h 28 c 2.209 0 4 -1.792 4 -4 V 9 C 39 6.791 37.209 5 35 5 z" stroke-linecap="round" />
</g>
<g transform="matrix(4.17 0 0 4.17 187.5 156.82)" id="Layer_1"  >
<path style="stroke: none; stroke-width: 1; stroke-dasharray: none; stroke-linecap: butt; stroke-dashoffset: 0; stroke-linejoin: miter; stroke-miterlimit: 4; fill: rgb(96,125,139); fill-rule: nonzero; opacity: 1;"  transform=" translate(-21, -13.64)" d="M 4.088 6.273 C 3.627 6.766 3.293 7.371 3.127 8.047 L 21 21 L 38.873 8.047 c -0.166 -0.676 -0.5 -1.281 -0.961 -1.773 L 21 18.531 L 4.088 6.273 z" stroke-linecap="round" />
</g>
<g transform="matrix(4.17 0 0 4.17 212.5 218.75)" id="Layer_1"  >
<path style="stroke: none; stroke-width: 1; stroke-dasharray: none; stroke-linecap: butt; stroke-dashoffset: 0; stroke-linejoin: miter; stroke-miterlimit: 4; fill: rgb(207,216,220); fill-rule: nonzero; opacity: 1;"  transform=" translate(-27, -28.5)" d="M 41 16 H 13 c -2.209 0 -4 1.791 -4 4 v 17 c 0 2.208 1.791 4 4 4 h 28 c 2.209 0 4 -1.792 4 -4 V 20 C 45 17.791 43.209 16 41 16 z" stroke-linecap="round" />
</g>
<g transform="matrix(4.17 0 0 4.17 212.5 202.65)" id="Layer_1"  >
<path style="stroke: none; stroke-width: 1; stroke-dasharray: none; stroke-linecap: butt; stroke-dashoffset: 0; stroke-linejoin: miter; stroke-miterlimit: 4; fill: rgb(120,144,156); fill-rule: nonzero; opacity: 1;"  transform=" translate(-27, -24.64)" d="M 10.088 17.273 c -0.461 0.492 -0.795 1.098 -0.961 1.773 L 27 32 l 17.873 -12.953 c -0.166 -0.676 -0.5 -1.281 -0.961 -1.773 L 27 29.531 L 10.088 17.273 z" stroke-linecap="round" />
</g>
<g transform="matrix(4.17 0 0 4.17 281.25 266.67)" id="Layer_1"  >
<polygon style="stroke: none; stroke-width: 1; stroke-dasharray: none; stroke-linecap: butt; stroke-dashoffset: 0; stroke-linejoin: miter; stroke-miterlimit: 4; fill: rgb(33,150,243); fill-rule: nonzero; opacity: 1;"  points="4.5,0 -4.5,-8 -4.5,8 " />
</g>
<g transform="matrix(4.17 0 0 4.17 239.58 266.67)" id="Layer_1"  >
<rect style="stroke: none; stroke-width: 1; stroke-dasharray: none; stroke-linecap: butt; stroke-dashoffset: 0; stroke-linejoin: miter; stroke-miterlimit: 4; fill: rgb(33,150,243); fill-rule: nonzero; opacity: 1;"  x="-6.5" y="-3" rx="0" ry="0" width="13" height="6" />
</g>
</svg>